<?xml version="1.0" encoding="utf-8" ?>
<svg baseProfile="full" height="512px" version="1.1" width="341px" xmlns="http://www.w3.org/2000/svg" xmlns:ev="http://www.w3.org/2001/xml-events" xmlns:xlink="http://www.w3.org/1999/xlink"><defs /><path d="M 174.00,406.00 L 173.00,406.00 L 172.00,406.00 L 171.00,406.00 L 170.00,406.00 L 169.00,406.00 L 168.00,406.00 L 167.00,406.00 L 166.00,406.00 L 165.00,406.00 L 164.00,406.00 L 163.00,406.00 L 162.00,406.00 L 161.00,406.00 L 160.00,406.00 L 159.00,406.00 L 158.00,406.00 L 157.00,406.00 L 156.00,406.00 L 155.00,406.00 L 154.00,406.00 L 153.00,406.00 L 152.00,406.00 L 151.00,406.00 L 150.00,406.00 L 149.00,406.00 L 148.00,406.00 L 147.00,406.00 L 146.00,406.00 L 145.00,406.00 L 144.00,406.00 L 143.00,406.00 L 142.00,406.00 L 141.00,406.00 L 140.00,406.00 L 139.00,406.00 L 138.00,406.00 L 137.00,406.00 L 136.00,406.00 L 135.00,406.00 L 134.00,406.00 L 133.00,406.00 L 132.00,406.00 L 131.00,406.00 L 130.00,406.00 L 129.00,406.00 L 128.00,406.00 L 127.00,406.00 L 126.00,406.00 L 125.00,406.00 L 124.00,406.00 L 123.00,406.00 L 122.00,406.00 L 121.00,406.00 L 120.00,406.00 L 119.00,406.00 L 118.00,406.00 L 117.00,406.00 L 116.00,406.00 L 115.00,406.00 L 114.00,406.00 L 113.00,406.00 L 112.00,406.00 L 111.00,406.00 L 110.00,406.00 L 109.00,406.00 L 108.00,406.00 L 107.00,406.00 L 106.00,406.00 L 105.00,406.00 L 104.00,406.00 L 103.00,406.00 L 102.00,406.00 L 101.00,406.00 L 100.00,406.00 L 99.00,406.00 L 98.00,406.00 L 97.00,406.00 L 96.00,406.00 L 95.00,406.00 L 94.00,406.00 L 93.00,406.00 L 92.00,406.00 L 91.00,406.00 L 90.00,406.00 L 89.00,406.00 L 88.00,406.00 L 87.00,406.00 L 86.00,406.00 L 85.00,406.00 L 84.00,406.00 L 83.00,406.00 L 82.00,406.00 L 81.00,406.00 L 80.00,405.00 L 80.00,405.00 L 79.00,405.00 L 78.00,405.00 L 77.00,405.00 L 76.00,405.00 L 75.00,405.00 L 74.00,405.00 L 73.00,405.00 L 72.00,404.00 L 72.00,404.00 L 71.00,404.00 L 70.00,404.00 L 69.00,403.00 L 69.00,403.00 L 68.00,403.00 L 67.00,402.00 L 67.00,402.00 L 66.00,402.00 L 65.00,401.00 L 65.00,401.00 L 64.00,401.00 L 63.00,400.00 L 63.00,400.00 L 62.00,399.00 L 62.00,399.00 L 61.00,399.00 L 60.00,398.00 L 60.00,398.00 L 59.00,397.00 L 59.00,397.00 L 58.00,396.00 L 58.00,396.00 L 57.00,395.00 L 57.00,394.00 L 57.00,394.00 L 56.00,393.00 L 56.00,393.00 L 55.00,392.00 L 55.00,392.00 L 54.00,391.00 L 54.00,390.00 L 54.00,390.00 L 53.00,389.00 L 53.00,388.00 L 53.00,388.00 L 52.00,387.00 L 52.00,386.00 L 52.00,385.00 L 52.00,385.00 L 51.00,384.00 L 51.00,383.00 L 51.00,382.00 L 51.00,381.00 L 51.00,380.00 L 51.00,380.00 L 50.00,379.00 L 50.00,378.00 L 50.00,377.00 L 50.00,376.00 L 50.00,375.00 L 50.00,374.00 L 50.00,373.00 L 50.00,372.00 L 50.00,371.00 L 50.00,370.00 L 50.00,369.00 L 50.00,368.00 L 50.00,367.00 L 50.00,366.00 L 50.00,365.00 L 50.00,364.00 L 50.00,363.00 L 50.00,362.00 L 50.00,361.00 L 50.00,360.00 L 50.00,359.00 L 50.00,358.00 L 50.00,357.00 L 50.00,356.00 L 50.00,355.00 L 50.00,354.00 L 50.00,353.00 L 50.00,352.00 L 50.00,351.00 L 50.00,350.00 L 50.00,349.00 L 50.00,348.00 L 50.00,347.00 L 50.00,346.00 L 50.00,345.00 L 50.00,344.00 L 50.00,343.00 L 50.00,342.00 L 51.00,341.00 L 51.00,341.00 L 51.00,340.00 L 51.00,339.00 L 51.00,338.00 L 51.00,337.00 L 51.00,336.00 L 51.00,335.00 L 51.00,334.00 L 51.00,333.00 L 52.00,332.00 L 52.00,332.00 L 52.00,331.00 L 52.00,330.00 L 52.00,329.00 L 52.00,328.00 L 52.00,327.00 L 52.00,326.00 L 53.00,325.00 L 53.00,325.00 L 53.00,324.00 L 53.00,323.00 L 53.00,322.00 L 53.00,321.00 L 53.00,320.00 L 53.00,319.00 L 54.00,318.00 L 54.00,318.00 L 54.00,317.00 L 54.00,316.00 L 54.00,315.00 L 54.00,314.00 L 54.00,313.00 L 54.00,312.00 L 55.00,311.00 L 55.00,311.00 L 55.00,310.00 L 55.00,309.00 L 55.00,308.00 L 55.00,307.00 L 55.00,306.00 L 56.00,305.00 L 56.00,305.00 L 56.00,304.00 L 56.00,303.00 L 56.00,302.00 L 56.00,301.00 L 56.00,300.00 L 56.00,299.00 L 57.00,298.00 L 57.00,298.00 L 57.00,297.00 L 57.00,296.00 L 57.00,295.00 L 57.00,294.00 L 57.00,293.00 L 57.00,292.00 L 58.00,291.00 L 58.00,291.00 L 58.00,290.00 L 58.00,289.00 L 58.00,288.00 L 58.00,287.00 L 58.00,286.00 L 58.00,285.00 L 59.00,284.00 L 59.00,284.00 L 59.00,283.00 L 59.00,282.00 L 59.00,281.00 L 59.00,280.00 L 59.00,279.00 L 59.00,278.00 L 60.00,277.00 L 60.00,277.00 L 60.00,276.00 L 60.00,275.00 L 60.00,274.00 L 60.00,273.00 L 60.00,272.00 L 60.00,271.00 L 61.00,270.00 L 61.00,270.00 L 61.00,269.00 L 61.00,268.00 L 61.00,267.00 L 61.00,266.00 L 61.00,265.00 L 61.00,264.00 L 62.00,263.00 L 62.00,263.00 L 62.00,262.00 L 62.00,261.00 L 62.00,260.00 L 62.00,259.00 L 62.00,258.00 L 63.00,257.00 L 63.00,257.00 L 63.00,256.00 L 63.00,255.00 L 63.00,254.00 L 63.00,253.00 L 63.00,252.00 L 63.00,251.00 L 64.00,250.00 L 64.00,250.00 L 64.00,249.00 L 64.00,248.00 L 64.00,247.00 L 64.00,246.00 L 64.00,245.00 L 64.00,244.00 L 65.00,243.00 L 65.00,243.00 L 65.00,242.00 L 65.00,241.00 L 65.00,240.00 L 65.00,239.00 L 65.00,238.00 L 65.00,237.00 L 66.00,236.00 L 66.00,236.00 L 66.00,235.00 L 66.00,234.00 L 66.00,233.00 L 66.00,232.00 L 66.00,231.00 L 66.00,230.00 L 67.00,229.00 L 67.00,229.00 L 67.00,228.00 L 67.00,227.00 L 67.00,226.00 L 67.00,225.00 L 67.00,224.00 L 68.00,223.00 L 68.00,223.00 L 68.00,222.00 L 68.00,221.00 L 68.00,220.00 L 68.00,219.00 L 68.00,218.00 L 68.00,217.00 L 69.00,216.00 L 69.00,216.00 L 69.00,215.00 L 69.00,214.00 L 69.00,213.00 L 69.00,212.00 L 69.00,211.00 L 70.00,210.00 L 70.00,210.00 L 70.00,209.00 L 70.00,208.00 L 70.00,207.00 L 70.00,206.00 L 70.00,205.00 L 71.00,204.00 L 71.00,204.00 L 71.00,203.00 L 71.00,202.00 L 72.00,201.00 L 72.00,201.00 L 72.00,200.00 L 73.00,199.00 L 73.00,199.00 L 73.00,198.00 L 74.00,197.00 L 74.00,197.00 L 75.00,196.00 L 75.00,196.00 L 76.00,195.00 L 76.00,195.00 L 77.00,194.00 L 77.00,194.00 L 78.00,193.00 L 78.00,193.00 L 79.00,192.00 L 79.00,192.00 L 80.00,191.00 L 80.00,191.00 L 81.00,190.00 L 82.00,190.00 L 82.00,190.00 L 83.00,189.00 L 84.00,189.00 L 84.00,189.00 L 85.00,188.00 L 86.00,188.00 L 87.00,188.00 L 87.00,188.00 L 88.00,187.00 L 89.00,187.00 L 90.00,187.00 L 91.00,187.00 L 92.00,187.00 L 93.00,187.00 L 94.00,187.00 L 95.00,187.00 L 96.00,187.00 L 97.00,187.00 L 98.00,187.00 L 99.00,187.00 L 100.00,187.00 L 101.00,187.00 L 102.00,187.00 L 103.00,187.00 L 104.00,187.00 L 105.00,187.00 L 106.00,187.00 L 107.00,187.00 L 108.00,187.00 L 109.00,187.00 L 110.00,187.00 L 111.00,187.00 L 112.00,187.00 L 113.00,187.00 L 114.00,187.00 L 115.00,187.00 L 116.00,187.00 L 117.00,187.00 L 118.00,187.00 L 119.00,187.00 L 120.00,187.00 L 121.00,187.00 L 122.00,187.00 L 123.00,187.00 L 124.00,187.00 L 125.00,187.00 L 126.00,187.00 L 127.00,187.00 L 128.00,187.00 L 129.00,187.00 L 130.00,187.00 L 131.00,187.00 L 132.00,187.00 L 133.00,187.00 L 134.00,187.00 L 135.00,187.00 L 136.00,187.00 L 137.00,187.00 L 138.00,187.00 L 139.00,187.00 L 140.00,187.00 L 141.00,187.00 L 142.00,187.00 L 143.00,187.00 L 144.00,187.00 L 145.00,187.00 L 146.00,187.00 L 147.00,187.00 L 148.00,187.00 L 149.00,187.00 L 150.00,187.00 L 151.00,187.00 L 152.00,187.00 L 153.00,187.00 L 154.00,187.00 L 155.00,187.00 L 156.00,187.00 L 157.00,187.00 L 158.00,187.00 L 159.00,187.00 L 160.00,187.00 L 161.00,187.00 L 162.00,187.00 L 163.00,187.00 L 164.00,187.00 L 165.00,187.00 L 166.00,187.00 L 167.00,187.00 L 168.00,187.00 L 169.00,187.00 L 170.00,187.00 L 171.00,187.00 L 172.00,187.00 L 173.00,187.00 L 174.00,187.00 L 175.00,187.00 L 176.00,187.00 L 177.00,187.00 L 178.00,187.00 L 179.00,187.00 L 180.00,187.00 L 181.00,187.00 L 182.00,187.00 L 183.00,187.00 L 184.00,187.00 L 185.00,187.00 L 186.00,187.00 L 187.00,187.00 L 188.00,187.00 L 189.00,187.00 L 190.00,187.00 L 191.00,187.00 L 192.00,187.00 L 193.00,187.00 L 194.00,187.00 L 195.00,187.00 L 196.00,187.00 L 197.00,187.00 L 197.00,187.00 L 198.00,186.00 L 199.00,186.00 L 200.00,186.00 L 201.00,186.00 L 202.00,186.00 L 203.00,186.00 L 204.00,186.00 L 205.00,186.00 L 206.00,186.00 L 207.00,186.00 L 208.00,186.00 L 209.00,186.00 L 210.00,186.00 L 211.00,186.00 L 212.00,186.00 L 213.00,186.00 L 214.00,186.00 L 215.00,186.00 L 216.00,186.00 L 217.00,186.00 L 218.00,186.00 L 219.00,187.00 L 219.00,187.00 L 220.00,187.00 L 221.00,187.00 L 222.00,187.00 L 223.00,187.00 L 224.00,187.00 L 225.00,187.00 L 226.00,187.00 L 227.00,187.00 L 228.00,188.00 L 228.00,188.00 L 229.00,188.00 L 230.00,188.00 L 231.00,189.00 L 231.00,189.00 L 232.00,189.00 L 233.00,190.00 L 233.00,190.00 L 234.00,190.00 L 235.00,191.00 L 235.00,191.00 L 236.00,191.00 L 237.00,192.00 L 237.00,192.00 L 238.00,193.00 L 238.00,193.00 L 239.00,194.00 L 239.00,194.00 L 240.00,195.00 L 240.00,196.00 L 240.00,196.00 L 241.00,197.00 L 241.00,197.00 L 242.00,198.00 L 242.00,199.00 L 242.00,199.00 L 243.00,200.00 L 243.00,201.00 L 243.00,201.00 L 244.00,202.00 L 244.00,203.00 L 244.00,204.00 L 244.00,204.00 L 245.00,205.00 L 245.00,206.00 L 245.00,207.00 L 245.00,208.00 L 245.00,209.00 L 245.00,209.00 L 246.00,210.00 L 246.00,211.00 L 246.00,212.00 L 246.00,213.00 L 246.00,214.00 L 246.00,215.00 L 246.00,215.00 L 247.00,216.00 L 247.00,217.00 L 247.00,218.00 L 247.00,219.00 L 247.00,220.00 L 247.00,221.00 L 247.00,221.00 L 248.00,222.00 L 248.00,223.00 L 248.00,224.00 L 248.00,225.00 L 248.00,226.00 L 248.00,227.00 L 248.00,228.00 L 248.00,228.00 L 249.00,229.00 L 249.00,230.00 L 249.00,231.00 L 249.00,232.00 L 249.00,233.00 L 249.00,234.00 L 249.00,234.00 L 250.00,235.00 L 250.00,236.00 L 250.00,237.00 L 250.00,238.00 L 250.00,239.00 L 250.00,240.00 L 250.00,240.00 L 251.00,241.00 L 251.00,242.00 L 251.00,243.00 L 251.00,244.00 L 251.00,245.00 L 251.00,246.00 L 251.00,247.00 L 251.00,247.00 L 252.00,248.00 L 252.00,249.00 L 252.00,250.00 L 252.00,251.00 L 252.00,252.00 L 252.00,253.00 L 252.00,253.00 L 253.00,254.00 L 253.00,255.00 L 253.00,256.00 L 253.00,257.00 L 253.00,258.00 L 253.00,259.00 L 253.00,259.00 L 254.00,260.00 L 254.00,261.00 L 254.00,262.00 L 254.00,263.00 L 254.00,264.00 L 254.00,265.00 L 254.00,266.00 L 254.00,266.00 L 255.00,267.00 L 255.00,268.00 L 255.00,269.00 L 255.00,270.00 L 255.00,271.00 L 254.00,272.00 L 253.00,272.00 L 252.00,272.00 L 251.00,272.00 L 250.00,272.00 L 249.00,272.00 L 248.00,272.00 L 247.00,272.00 L 246.00,272.00 L 245.00,272.00 L 244.00,272.00 L 243.00,272.00 L 242.00,272.00 L 241.00,272.00 L 240.00,272.00 L 239.00,272.00 L 238.00,272.00 L 237.00,272.00 L 236.00,271.00 L 236.00,270.00 L 236.00,269.00 L 236.00,269.00 L 235.00,268.00 L 235.00,267.00 L 235.00,266.00 L 235.00,265.00 L 235.00,264.00 L 235.00,263.00 L 235.00,263.00 L 234.00,262.00 L 234.00,261.00 L 234.00,260.00 L 234.00,259.00 L 234.00,258.00 L 234.00,257.00 L 234.00,257.00 L 233.00,256.00 L 233.00,255.00 L 233.00,254.00 L 233.00,253.00 L 233.00,252.00 L 233.00,251.00 L 233.00,251.00 L 232.00,250.00 L 232.00,249.00 L 232.00,248.00 L 232.00,247.00 L 232.00,246.00 L 232.00,245.00 L 232.00,245.00 L 231.00,244.00 L 231.00,243.00 L 231.00,242.00 L 231.00,241.00 L 231.00,240.00 L 231.00,239.00 L 231.00,239.00 L 230.00,238.00 L 230.00,237.00 L 230.00,236.00 L 230.00,235.00 L 230.00,234.00 L 230.00,233.00 L 230.00,232.00 L 230.00,232.00 L 229.00,231.00 L 229.00,230.00 L 229.00,229.00 L 229.00,228.00 L 229.00,227.00 L 229.00,226.00 L 229.00,226.00 L 228.00,225.00 L 228.00,224.00 L 228.00,223.00 L 228.00,222.00 L 228.00,221.00 L 228.00,220.00 L 228.00,220.00 L 227.00,219.00 L 227.00,218.00 L 227.00,217.00 L 227.00,216.00 L 227.00,215.00 L 227.00,214.00 L 227.00,214.00 L 226.00,213.00 L 226.00,212.00 L 226.00,211.00 L 226.00,210.00 L 226.00,209.00 L 226.00,209.00 L 225.00,208.00 L 225.00,208.00 L 224.00,207.00 L 224.00,207.00 L 223.00,207.00 L 222.00,207.00 L 221.00,207.00 L 220.00,207.00 L 219.00,207.00 L 218.00,207.00 L 217.00,207.00 L 216.00,207.00 L 215.00,207.00 L 214.00,207.00 L 213.00,207.00 L 212.00,207.00 L 211.00,207.00 L 210.00,207.00 L 209.00,207.00 L 208.00,207.00 L 207.00,207.00 L 206.00,207.00 L 205.00,207.00 L 204.00,207.00 L 203.00,207.00 L 202.00,207.00 L 201.00,207.00 L 200.00,207.00 L 199.00,207.00 L 198.00,207.00 L 197.00,207.00 L 196.00,207.00 L 195.00,207.00 L 194.00,207.00 L 193.00,207.00 L 192.00,207.00 L 191.00,207.00 L 190.00,207.00 L 189.00,207.00 L 188.00,207.00 L 187.00,207.00 L 186.00,207.00 L 185.00,207.00 L 184.00,207.00 L 183.00,207.00 L 182.00,207.00 L 181.00,207.00 L 180.00,207.00 L 179.00,207.00 L 178.00,207.00 L 177.00,207.00 L 176.00,207.00 L 175.00,207.00 L 174.00,207.00 L 173.00,207.00 L 172.00,207.00 L 171.00,207.00 L 170.00,207.00 L 169.00,207.00 L 168.00,207.00 L 167.00,207.00 L 166.00,207.00 L 165.00,207.00 L 164.00,207.00 L 163.00,207.00 L 162.00,207.00 L 161.00,207.00 L 160.00,207.00 L 159.00,207.00 L 158.00,207.00 L 157.00,207.00 L 156.00,207.00 L 155.00,207.00 L 154.00,207.00 L 153.00,207.00 L 152.00,207.00 L 151.00,207.00 L 150.00,207.00 L 149.00,207.00 L 148.00,207.00 L 147.00,207.00 L 146.00,207.00 L 145.00,207.00 L 144.00,207.00 L 143.00,207.00 L 142.00,207.00 L 141.00,207.00 L 140.00,207.00 L 139.00,207.00 L 138.00,207.00 L 137.00,207.00 L 136.00,207.00 L 135.00,207.00 L 134.00,207.00 L 133.00,207.00 L 132.00,207.00 L 131.00,207.00 L 130.00,207.00 L 129.00,207.00 L 128.00,207.00 L 127.00,207.00 L 126.00,207.00 L 125.00,207.00 L 124.00,207.00 L 123.00,207.00 L 122.00,207.00 L 121.00,207.00 L 120.00,207.00 L 119.00,207.00 L 118.00,207.00 L 117.00,207.00 L 116.00,207.00 L 115.00,207.00 L 114.00,207.00 L 113.00,207.00 L 112.00,207.00 L 111.00,207.00 L 110.00,207.00 L 109.00,207.00 L 108.00,207.00 L 107.00,207.00 L 106.00,207.00 L 105.00,207.00 L 104.00,207.00 L 103.00,207.00 L 102.00,207.00 L 101.00,207.00 L 100.00,207.00 L 99.00,207.00 L 98.00,207.00 L 97.00,207.00 L 96.00,207.00 L 95.00,207.00 L 94.00,207.00 L 93.00,207.00 L 92.00,207.00 L 91.00,207.00 L 90.00,207.00 L 90.00,207.00 L 89.00,208.00 L 89.00,208.00 L 89.00,209.00 L 89.00,210.00 L 89.00,211.00 L 88.00,212.00 L 88.00,212.00 L 88.00,213.00 L 88.00,214.00 L 88.00,215.00 L 88.00,216.00 L 88.00,217.00 L 87.00,218.00 L 87.00,218.00 L 87.00,219.00 L 87.00,220.00 L 87.00,221.00 L 87.00,222.00 L 87.00,223.00 L 87.00,224.00 L 86.00,225.00 L 86.00,225.00 L 86.00,226.00 L 86.00,227.00 L 86.00,228.00 L 86.00,229.00 L 86.00,230.00 L 86.00,231.00 L 85.00,232.00 L 85.00,232.00 L 85.00,233.00 L 85.00,234.00 L 85.00,235.00 L 85.00,236.00 L 85.00,237.00 L 85.00,238.00 L 84.00,239.00 L 84.00,239.00 L 84.00,240.00 L 84.00,241.00 L 84.00,242.00 L 84.00,243.00 L 84.00,244.00 L 84.00,245.00 L 83.00,246.00 L 83.00,246.00 L 83.00,247.00 L 83.00,248.00 L 83.00,249.00 L 83.00,250.00 L 83.00,251.00 L 82.00,252.00 L 82.00,252.00 L 82.00,253.00 L 82.00,254.00 L 82.00,255.00 L 82.00,256.00 L 82.00,257.00 L 82.00,258.00 L 81.00,259.00 L 81.00,259.00 L 81.00,260.00 L 81.00,261.00 L 81.00,262.00 L 81.00,263.00 L 81.00,264.00 L 81.00,265.00 L 80.00,266.00 L 80.00,266.00 L 80.00,267.00 L 80.00,268.00 L 80.00,269.00 L 80.00,270.00 L 80.00,271.00 L 80.00,272.00 L 79.00,273.00 L 79.00,273.00 L 79.00,274.00 L 79.00,275.00 L 79.00,276.00 L 79.00,277.00 L 79.00,278.00 L 79.00,279.00 L 78.00,280.00 L 78.00,280.00 L 78.00,281.00 L 78.00,282.00 L 78.00,283.00 L 78.00,284.00 L 78.00,285.00 L 78.00,286.00 L 77.00,287.00 L 77.00,287.00 L 77.00,288.00 L 77.00,289.00 L 77.00,290.00 L 77.00,291.00 L 77.00,292.00 L 77.00,293.00 L 76.00,294.00 L 76.00,294.00 L 76.00,295.00 L 76.00,296.00 L 76.00,297.00 L 76.00,298.00 L 76.00,299.00 L 76.00,300.00 L 75.00,301.00 L 75.00,301.00 L 75.00,302.00 L 75.00,303.00 L 75.00,304.00 L 75.00,305.00 L 75.00,306.00 L 75.00,307.00 L 74.00,308.00 L 74.00,308.00 L 74.00,309.00 L 74.00,310.00 L 74.00,311.00 L 74.00,312.00 L 74.00,313.00 L 74.00,314.00 L 73.00,315.00 L 73.00,315.00 L 73.00,316.00 L 73.00,317.00 L 73.00,318.00 L 73.00,319.00 L 73.00,319.00 L 74.00,319.00 L 74.00,319.00 L 75.00,318.00 L 76.00,318.00 L 77.00,318.00 L 77.00,318.00 L 78.00,317.00 L 79.00,317.00 L 80.00,317.00 L 81.00,317.00 L 82.00,317.00 L 83.00,317.00 L 84.00,317.00 L 85.00,317.00 L 86.00,317.00 L 87.00,317.00 L 88.00,317.00 L 88.00,317.00 L 89.00,316.00 L 90.00,316.00 L 91.00,316.00 L 92.00,316.00 L 93.00,316.00 L 94.00,316.00 L 95.00,316.00 L 96.00,316.00 L 97.00,316.00 L 98.00,316.00 L 99.00,316.00 L 100.00,316.00 L 101.00,316.00 L 102.00,316.00 L 103.00,316.00 L 104.00,316.00 L 105.00,316.00 L 106.00,316.00 L 107.00,316.00 L 108.00,316.00 L 109.00,316.00 L 110.00,316.00 L 111.00,316.00 L 112.00,316.00 L 113.00,316.00 L 114.00,316.00 L 115.00,316.00 L 116.00,316.00 L 117.00,316.00 L 118.00,316.00 L 119.00,316.00 L 120.00,316.00 L 121.00,316.00 L 122.00,316.00 L 123.00,316.00 L 124.00,316.00 L 125.00,316.00 L 126.00,316.00 L 127.00,316.00 L 128.00,316.00 L 129.00,316.00 L 130.00,316.00 L 131.00,316.00 L 132.00,316.00 L 133.00,316.00 L 134.00,316.00 L 135.00,316.00 L 136.00,316.00 L 137.00,316.00 L 138.00,316.00 L 139.00,316.00 L 140.00,316.00 L 141.00,316.00 L 142.00,316.00 L 143.00,316.00 L 144.00,316.00 L 145.00,316.00 L 146.00,316.00 L 147.00,316.00 L 148.00,316.00 L 149.00,316.00 L 150.00,316.00 L 151.00,316.00 L 152.00,316.00 L 153.00,316.00 L 154.00,316.00 L 155.00,316.00 L 156.00,316.00 L 157.00,316.00 L 158.00,316.00 L 159.00,316.00 L 160.00,317.00 L 160.00,318.00 L 160.00,319.00 L 160.00,319.00 L 161.00,320.00 L 161.00,321.00 L 161.00,322.00 L 161.00,323.00 L 161.00,323.00 L 162.00,324.00 L 162.00,325.00 L 162.00,326.00 L 162.00,327.00 L 162.00,327.00 L 163.00,328.00 L 163.00,329.00 L 163.00,330.00 L 163.00,331.00 L 163.00,331.00 L 164.00,332.00 L 164.00,333.00 L 164.00,334.00 L 163.00,335.00 L 162.00,335.00 L 161.00,335.00 L 160.00,335.00 L 159.00,335.00 L 158.00,335.00 L 157.00,335.00 L 156.00,335.00 L 155.00,335.00 L 154.00,335.00 L 153.00,335.00 L 152.00,335.00 L 151.00,335.00 L 151.00,335.00 L 150.00,336.00 L 149.00,335.00 L 149.00,335.00 L 149.00,335.00 L 148.00,336.00 L 147.00,336.00 L 146.00,336.00 L 145.00,336.00 L 144.00,336.00 L 143.00,336.00 L 142.00,336.00 L 141.00,336.00 L 140.00,336.00 L 139.00,336.00 L 138.00,336.00 L 137.00,336.00 L 136.00,336.00 L 135.00,336.00 L 134.00,336.00 L 133.00,336.00 L 132.00,336.00 L 131.00,336.00 L 130.00,336.00 L 129.00,336.00 L 128.00,336.00 L 127.00,336.00 L 126.00,336.00 L 125.00,336.00 L 124.00,336.00 L 123.00,336.00 L 122.00,336.00 L 121.00,336.00 L 120.00,336.00 L 119.00,336.00 L 118.00,336.00 L 117.00,336.00 L 116.00,336.00 L 115.00,336.00 L 114.00,336.00 L 113.00,336.00 L 112.00,336.00 L 111.00,336.00 L 110.00,336.00 L 109.00,336.00 L 108.00,336.00 L 107.00,336.00 L 106.00,336.00 L 105.00,336.00 L 104.00,336.00 L 103.00,336.00 L 102.00,336.00 L 101.00,336.00 L 100.00,336.00 L 99.00,336.00 L 98.00,336.00 L 97.00,336.00 L 96.00,336.00 L 95.00,336.00 L 94.00,336.00 L 93.00,336.00 L 92.00,336.00 L 91.00,336.00 L 90.00,336.00 L 89.00,336.00 L 88.00,336.00 L 87.00,336.00 L 86.00,336.00 L 85.00,336.00 L 84.00,336.00 L 83.00,336.00 L 82.00,336.00 L 81.00,336.00 L 80.00,336.00 L 80.00,336.00 L 79.00,337.00 L 78.00,337.00 L 77.00,337.00 L 77.00,337.00 L 76.00,338.00 L 76.00,338.00 L 75.00,339.00 L 74.00,339.00 L 74.00,339.00 L 73.00,340.00 L 73.00,340.00 L 72.00,341.00 L 72.00,341.00 L 71.00,342.00 L 71.00,342.00 L 71.00,343.00 L 70.00,344.00 L 70.00,344.00 L 70.00,345.00 L 69.00,346.00 L 69.00,346.00 L 69.00,347.00 L 69.00,348.00 L 69.00,349.00 L 69.00,350.00 L 69.00,351.00 L 69.00,352.00 L 69.00,353.00 L 69.00,354.00 L 69.00,355.00 L 69.00,356.00 L 69.00,357.00 L 69.00,358.00 L 69.00,359.00 L 69.00,360.00 L 69.00,361.00 L 69.00,362.00 L 69.00,363.00 L 69.00,364.00 L 69.00,365.00 L 69.00,366.00 L 69.00,367.00 L 69.00,368.00 L 69.00,369.00 L 69.00,370.00 L 69.00,371.00 L 69.00,372.00 L 69.00,373.00 L 69.00,374.00 L 69.00,375.00 L 69.00,376.00 L 69.00,377.00 L 69.00,378.00 L 69.00,378.00 L 70.00,379.00 L 70.00,380.00 L 70.00,380.00 L 71.00,381.00 L 71.00,381.00 L 72.00,382.00 L 72.00,382.00 L 73.00,383.00 L 73.00,383.00 L 74.00,384.00 L 74.00,384.00 L 75.00,384.00 L 76.00,385.00 L 76.00,385.00 L 77.00,385.00 L 78.00,386.00 L 78.00,386.00 L 79.00,386.00 L 80.00,386.00 L 81.00,386.00 L 82.00,386.00 L 83.00,386.00 L 84.00,386.00 L 85.00,386.00 L 86.00,386.00 L 87.00,386.00 L 88.00,386.00 L 89.00,386.00 L 90.00,386.00 L 91.00,386.00 L 92.00,386.00 L 93.00,386.00 L 94.00,386.00 L 95.00,386.00 L 96.00,386.00 L 97.00,386.00 L 98.00,386.00 L 99.00,386.00 L 100.00,386.00 L 101.00,386.00 L 102.00,386.00 L 103.00,386.00 L 104.00,386.00 L 105.00,386.00 L 106.00,386.00 L 107.00,386.00 L 108.00,386.00 L 109.00,386.00 L 110.00,386.00 L 111.00,386.00 L 112.00,386.00 L 113.00,386.00 L 114.00,386.00 L 115.00,386.00 L 116.00,386.00 L 117.00,386.00 L 118.00,386.00 L 119.00,386.00 L 120.00,386.00 L 121.00,386.00 L 122.00,386.00 L 123.00,386.00 L 124.00,386.00 L 125.00,386.00 L 126.00,386.00 L 127.00,386.00 L 128.00,386.00 L 129.00,386.00 L 130.00,386.00 L 131.00,386.00 L 132.00,386.00 L 133.00,386.00 L 134.00,386.00 L 135.00,386.00 L 136.00,386.00 L 137.00,386.00 L 138.00,386.00 L 139.00,386.00 L 140.00,386.00 L 141.00,386.00 L 142.00,386.00 L 143.00,386.00 L 144.00,386.00 L 145.00,386.00 L 146.00,386.00 L 147.00,386.00 L 148.00,386.00 L 149.00,386.00 L 150.00,386.00 L 151.00,386.00 L 152.00,386.00 L 153.00,386.00 L 154.00,386.00 L 155.00,386.00 L 156.00,386.00 L 157.00,386.00 L 158.00,386.00 L 159.00,386.00 L 160.00,386.00 L 161.00,386.00 L 162.00,386.00 L 163.00,386.00 L 164.00,386.00 L 165.00,386.00 L 166.00,386.00 L 167.00,386.00 L 168.00,386.00 L 169.00,386.00 L 170.00,387.00 L 170.00,388.00 L 170.00,389.00 L 170.00,390.00 L 170.00,391.00 L 170.00,392.00 L 170.00,393.00 L 170.00,393.00 L 171.00,394.00 L 171.00,395.00 L 171.00,396.00 L 171.00,397.00 L 171.00,397.00 L 172.00,398.00 L 172.00,399.00 L 172.00,400.00 L 172.00,400.00 L 173.00,401.00 L 173.00,402.00 L 173.00,402.00 L 174.00,403.00 L 174.00,404.00 L 174.00,404.00 L 175.00,405.00 L 174.00,406.00 Z" fill="black" /><path d="M 202.00,409.00 L 201.00,408.00 L 201.00,408.00 L 200.00,408.00 L 199.00,408.00 L 198.00,408.00 L 197.00,408.00 L 196.00,407.00 L 196.00,407.00 L 195.00,407.00 L 194.00,407.00 L 193.00,406.00 L 193.00,406.00 L 192.00,406.00 L 191.00,405.00 L 191.00,405.00 L 190.00,404.00 L 190.00,404.00 L 189.00,403.00 L 189.00,403.00 L 188.00,402.00 L 188.00,402.00 L 187.00,401.00 L 187.00,401.00 L 186.00,400.00 L 186.00,400.00 L 185.00,399.00 L 185.00,398.00 L 185.00,398.00 L 184.00,397.00 L 184.00,396.00 L 184.00,395.00 L 184.00,395.00 L 183.00,394.00 L 183.00,393.00 L 183.00,392.00 L 183.00,391.00 L 183.00,390.00 L 183.00,390.00 L 182.00,389.00 L 182.00,388.00 L 182.00,387.00 L 183.00,386.00 L 183.00,386.00 L 183.00,385.00 L 183.00,384.00 L 183.00,383.00 L 184.00,382.00 L 184.00,382.00 L 184.00,381.00 L 185.00,380.00 L 185.00,380.00 L 185.00,379.00 L 186.00,378.00 L 186.00,378.00 L 186.00,377.00 L 187.00,376.00 L 187.00,376.00 L 188.00,375.00 L 188.00,375.00 L 189.00,374.00 L 189.00,374.00 L 189.00,373.00 L 189.00,373.00 L 188.00,372.00 L 188.00,372.00 L 187.00,371.00 L 187.00,370.00 L 187.00,370.00 L 186.00,369.00 L 186.00,368.00 L 186.00,367.00 L 186.00,367.00 L 185.00,366.00 L 185.00,365.00 L 185.00,364.00 L 185.00,363.00 L 185.00,363.00 L 184.00,362.00 L 184.00,361.00 L 184.00,360.00 L 184.00,359.00 L 184.00,359.00 L 183.00,358.00 L 183.00,357.00 L 183.00,356.00 L 183.00,355.00 L 183.00,355.00 L 182.00,354.00 L 182.00,353.00 L 182.00,352.00 L 182.00,351.00 L 182.00,351.00 L 181.00,350.00 L 181.00,349.00 L 181.00,348.00 L 181.00,347.00 L 181.00,347.00 L 180.00,346.00 L 180.00,345.00 L 180.00,344.00 L 180.00,343.00 L 180.00,343.00 L 179.00,342.00 L 179.00,341.00 L 179.00,340.00 L 179.00,339.00 L 179.00,339.00 L 178.00,338.00 L 178.00,337.00 L 178.00,336.00 L 178.00,335.00 L 178.00,335.00 L 177.00,334.00 L 177.00,333.00 L 177.00,332.00 L 177.00,331.00 L 177.00,331.00 L 176.00,330.00 L 176.00,329.00 L 176.00,328.00 L 176.00,327.00 L 176.00,327.00 L 175.00,326.00 L 175.00,325.00 L 175.00,324.00 L 175.00,323.00 L 175.00,323.00 L 174.00,322.00 L 174.00,321.00 L 174.00,320.00 L 174.00,319.00 L 174.00,319.00 L 173.00,318.00 L 173.00,317.00 L 173.00,316.00 L 173.00,315.00 L 173.00,315.00 L 172.00,314.00 L 172.00,313.00 L 172.00,312.00 L 172.00,311.00 L 172.00,311.00 L 171.00,310.00 L 171.00,309.00 L 171.00,308.00 L 171.00,307.00 L 171.00,307.00 L 170.00,306.00 L 170.00,305.00 L 170.00,304.00 L 170.00,303.00 L 170.00,303.00 L 169.00,302.00 L 169.00,301.00 L 169.00,300.00 L 169.00,299.00 L 169.00,299.00 L 168.00,298.00 L 168.00,297.00 L 168.00,296.00 L 168.00,295.00 L 168.00,295.00 L 167.00,294.00 L 167.00,293.00 L 167.00,292.00 L 167.00,291.00 L 167.00,291.00 L 166.00,290.00 L 166.00,289.00 L 166.00,288.00 L 166.00,287.00 L 166.00,287.00 L 165.00,286.00 L 165.00,286.00 L 164.00,286.00 L 163.00,286.00 L 162.00,286.00 L 161.00,286.00 L 160.00,286.00 L 159.00,286.00 L 158.00,286.00 L 157.00,286.00 L 156.00,286.00 L 155.00,286.00 L 154.00,286.00 L 153.00,286.00 L 152.00,286.00 L 151.00,286.00 L 150.00,286.00 L 149.00,286.00 L 148.00,286.00 L 147.00,286.00 L 146.00,286.00 L 145.00,285.00 L 145.00,285.00 L 144.00,285.00 L 143.00,284.00 L 143.00,284.00 L 142.00,283.00 L 142.00,283.00 L 141.00,282.00 L 141.00,281.00 L 141.00,281.00 L 140.00,280.00 L 140.00,279.00 L 140.00,278.00 L 140.00,277.00 L 140.00,276.00 L 140.00,275.00 L 140.00,274.00 L 140.00,273.00 L 141.00,272.00 L 141.00,272.00 L 142.00,271.00 L 142.00,271.00 L 142.00,270.00 L 143.00,269.00 L 144.00,269.00 L 144.00,269.00 L 145.00,268.00 L 146.00,268.00 L 146.00,268.00 L 147.00,267.00 L 148.00,267.00 L 149.00,267.00 L 150.00,267.00 L 151.00,267.00 L 152.00,267.00 L 153.00,267.00 L 154.00,267.00 L 155.00,267.00 L 156.00,267.00 L 157.00,267.00 L 158.00,267.00 L 159.00,267.00 L 160.00,267.00 L 161.00,267.00 L 162.00,267.00 L 163.00,267.00 L 164.00,267.00 L 165.00,267.00 L 166.00,267.00 L 167.00,267.00 L 168.00,267.00 L 169.00,267.00 L 170.00,267.00 L 171.00,267.00 L 172.00,267.00 L 173.00,267.00 L 174.00,268.00 L 174.00,268.00 L 175.00,268.00 L 176.00,268.00 L 177.00,269.00 L 177.00,269.00 L 178.00,270.00 L 178.00,270.00 L 179.00,271.00 L 179.00,271.00 L 180.00,272.00 L 180.00,272.00 L 181.00,273.00 L 181.00,273.00 L 182.00,274.00 L 182.00,275.00 L 182.00,275.00 L 183.00,276.00 L 183.00,277.00 L 183.00,278.00 L 183.00,278.00 L 184.00,279.00 L 184.00,280.00 L 184.00,281.00 L 184.00,282.00 L 184.00,282.00 L 185.00,283.00 L 185.00,284.00 L 185.00,284.00 L 186.00,284.00 L 187.00,284.00 L 188.00,284.00 L 189.00,284.00 L 190.00,284.00 L 191.00,284.00 L 192.00,284.00 L 193.00,284.00 L 194.00,284.00 L 195.00,284.00 L 196.00,284.00 L 197.00,284.00 L 198.00,284.00 L 199.00,284.00 L 200.00,284.00 L 201.00,284.00 L 202.00,284.00 L 203.00,284.00 L 204.00,284.00 L 205.00,284.00 L 206.00,284.00 L 207.00,284.00 L 208.00,284.00 L 209.00,284.00 L 210.00,284.00 L 211.00,284.00 L 212.00,284.00 L 213.00,284.00 L 214.00,284.00 L 215.00,284.00 L 216.00,284.00 L 217.00,284.00 L 218.00,284.00 L 219.00,284.00 L 220.00,284.00 L 221.00,284.00 L 222.00,284.00 L 223.00,284.00 L 224.00,284.00 L 225.00,284.00 L 226.00,284.00 L 227.00,284.00 L 228.00,284.00 L 229.00,284.00 L 230.00,284.00 L 231.00,284.00 L 232.00,284.00 L 233.00,284.00 L 234.00,284.00 L 235.00,284.00 L 236.00,284.00 L 237.00,284.00 L 238.00,284.00 L 239.00,284.00 L 240.00,284.00 L 241.00,284.00 L 242.00,284.00 L 243.00,284.00 L 244.00,284.00 L 245.00,284.00 L 246.00,284.00 L 247.00,284.00 L 248.00,284.00 L 249.00,284.00 L 250.00,284.00 L 251.00,284.00 L 252.00,284.00 L 253.00,284.00 L 254.00,284.00 L 255.00,284.00 L 256.00,284.00 L 257.00,284.00 L 258.00,284.00 L 259.00,284.00 L 260.00,284.00 L 261.00,284.00 L 262.00,284.00 L 263.00,284.00 L 264.00,284.00 L 265.00,284.00 L 266.00,284.00 L 267.00,284.00 L 268.00,284.00 L 269.00,284.00 L 270.00,284.00 L 271.00,284.00 L 272.00,284.00 L 273.00,284.00 L 274.00,284.00 L 275.00,284.00 L 276.00,284.00 L 277.00,284.00 L 278.00,284.00 L 279.00,284.00 L 280.00,284.00 L 281.00,284.00 L 282.00,284.00 L 283.00,284.00 L 284.00,285.00 L 284.00,285.00 L 285.00,285.00 L 286.00,285.00 L 287.00,286.00 L 287.00,286.00 L 288.00,287.00 L 288.00,287.00 L 289.00,288.00 L 289.00,288.00 L 290.00,289.00 L 290.00,290.00 L 290.00,290.00 L 291.00,291.00 L 291.00,292.00 L 291.00,293.00 L 291.00,294.00 L 291.00,295.00 L 290.00,296.00 L 290.00,296.00 L 290.00,297.00 L 290.00,298.00 L 290.00,299.00 L 289.00,300.00 L 289.00,300.00 L 289.00,301.00 L 289.00,302.00 L 289.00,303.00 L 289.00,304.00 L 288.00,305.00 L 288.00,305.00 L 288.00,306.00 L 288.00,307.00 L 288.00,308.00 L 287.00,309.00 L 287.00,309.00 L 287.00,310.00 L 287.00,311.00 L 287.00,312.00 L 286.00,313.00 L 286.00,313.00 L 286.00,314.00 L 286.00,315.00 L 286.00,316.00 L 285.00,317.00 L 285.00,317.00 L 285.00,318.00 L 285.00,319.00 L 285.00,320.00 L 285.00,321.00 L 284.00,322.00 L 284.00,322.00 L 284.00,323.00 L 284.00,324.00 L 284.00,325.00 L 283.00,326.00 L 283.00,326.00 L 283.00,327.00 L 283.00,328.00 L 283.00,329.00 L 282.00,330.00 L 282.00,330.00 L 282.00,331.00 L 282.00,332.00 L 282.00,333.00 L 281.00,334.00 L 281.00,334.00 L 281.00,335.00 L 281.00,336.00 L 281.00,337.00 L 280.00,338.00 L 280.00,338.00 L 280.00,339.00 L 280.00,340.00 L 280.00,341.00 L 280.00,342.00 L 279.00,343.00 L 279.00,343.00 L 279.00,344.00 L 279.00,345.00 L 278.00,346.00 L 278.00,346.00 L 277.00,347.00 L 277.00,347.00 L 277.00,348.00 L 276.00,349.00 L 276.00,349.00 L 275.00,350.00 L 275.00,350.00 L 274.00,351.00 L 273.00,351.00 L 273.00,351.00 L 272.00,352.00 L 271.00,352.00 L 271.00,352.00 L 270.00,353.00 L 269.00,353.00 L 268.00,353.00 L 267.00,353.00 L 266.00,353.00 L 265.00,353.00 L 264.00,353.00 L 263.00,353.00 L 262.00,353.00 L 261.00,353.00 L 260.00,353.00 L 259.00,353.00 L 258.00,353.00 L 257.00,353.00 L 256.00,353.00 L 255.00,353.00 L 254.00,353.00 L 253.00,353.00 L 252.00,353.00 L 251.00,353.00 L 250.00,353.00 L 249.00,353.00 L 248.00,353.00 L 247.00,353.00 L 246.00,353.00 L 245.00,353.00 L 244.00,353.00 L 243.00,353.00 L 242.00,353.00 L 241.00,353.00 L 240.00,353.00 L 239.00,353.00 L 238.00,353.00 L 237.00,353.00 L 236.00,353.00 L 235.00,353.00 L 234.00,353.00 L 233.00,353.00 L 232.00,353.00 L 231.00,353.00 L 230.00,353.00 L 229.00,353.00 L 228.00,353.00 L 227.00,353.00 L 226.00,353.00 L 225.00,353.00 L 224.00,353.00 L 223.00,353.00 L 222.00,353.00 L 221.00,353.00 L 220.00,353.00 L 219.00,353.00 L 218.00,353.00 L 217.00,353.00 L 216.00,353.00 L 215.00,353.00 L 214.00,353.00 L 213.00,353.00 L 212.00,353.00 L 211.00,353.00 L 210.00,353.00 L 209.00,353.00 L 208.00,353.00 L 207.00,353.00 L 206.00,353.00 L 205.00,353.00 L 204.00,353.00 L 203.00,353.00 L 202.00,353.00 L 202.00,353.00 L 202.00,354.00 L 202.00,355.00 L 202.00,356.00 L 202.00,356.00 L 203.00,357.00 L 203.00,358.00 L 203.00,359.00 L 203.00,360.00 L 203.00,361.00 L 203.00,361.00 L 204.00,362.00 L 204.00,362.00 L 205.00,363.00 L 205.00,363.00 L 206.00,364.00 L 206.00,364.00 L 207.00,364.00 L 208.00,364.00 L 209.00,364.00 L 210.00,364.00 L 211.00,364.00 L 212.00,364.00 L 213.00,364.00 L 214.00,364.00 L 215.00,364.00 L 216.00,364.00 L 217.00,364.00 L 218.00,364.00 L 219.00,364.00 L 220.00,364.00 L 221.00,364.00 L 222.00,364.00 L 223.00,364.00 L 224.00,364.00 L 225.00,364.00 L 226.00,364.00 L 227.00,364.00 L 228.00,364.00 L 229.00,364.00 L 230.00,364.00 L 231.00,364.00 L 232.00,364.00 L 233.00,364.00 L 234.00,364.00 L 235.00,364.00 L 236.00,364.00 L 237.00,364.00 L 238.00,364.00 L 239.00,364.00 L 240.00,364.00 L 241.00,364.00 L 242.00,364.00 L 243.00,364.00 L 244.00,364.00 L 245.00,364.00 L 246.00,364.00 L 247.00,364.00 L 248.00,364.00 L 249.00,364.00 L 250.00,364.00 L 251.00,364.00 L 252.00,364.00 L 253.00,364.00 L 254.00,364.00 L 255.00,364.00 L 256.00,364.00 L 257.00,364.00 L 258.00,364.00 L 259.00,364.00 L 260.00,364.00 L 261.00,364.00 L 262.00,364.00 L 263.00,364.00 L 264.00,365.00 L 264.00,365.00 L 265.00,365.00 L 266.00,365.00 L 267.00,366.00 L 267.00,366.00 L 268.00,367.00 L 268.00,367.00 L 269.00,368.00 L 269.00,369.00 L 269.00,369.00 L 270.00,370.00 L 270.00,371.00 L 270.00,372.00 L 270.00,373.00 L 269.00,374.00 L 269.00,374.00 L 269.00,374.00 L 270.00,375.00 L 270.00,375.00 L 271.00,375.00 L 272.00,376.00 L 272.00,377.00 L 272.00,377.00 L 273.00,378.00 L 273.00,378.00 L 274.00,379.00 L 274.00,379.00 L 275.00,380.00 L 275.00,381.00 L 275.00,381.00 L 276.00,382.00 L 276.00,383.00 L 276.00,384.00 L 276.00,385.00 L 276.00,385.00 L 277.00,386.00 L 277.00,387.00 L 277.00,388.00 L 277.00,389.00 L 277.00,390.00 L 277.00,391.00 L 277.00,392.00 L 277.00,393.00 L 276.00,394.00 L 276.00,394.00 L 276.00,395.00 L 276.00,396.00 L 275.00,397.00 L 275.00,397.00 L 275.00,398.00 L 274.00,399.00 L 274.00,399.00 L 273.00,400.00 L 273.00,400.00 L 273.00,401.00 L 272.00,402.00 L 272.00,402.00 L 271.00,403.00 L 271.00,403.00 L 270.00,404.00 L 269.00,404.00 L 269.00,404.00 L 268.00,405.00 L 268.00,405.00 L 267.00,406.00 L 266.00,406.00 L 266.00,406.00 L 265.00,407.00 L 264.00,407.00 L 264.00,407.00 L 263.00,408.00 L 262.00,408.00 L 261.00,408.00 L 260.00,408.00 L 259.00,408.00 L 258.00,408.00 L 257.00,408.00 L 256.00,408.00 L 255.00,408.00 L 254.00,408.00 L 253.00,408.00 L 252.00,407.00 L 252.00,407.00 L 251.00,407.00 L 250.00,407.00 L 249.00,406.00 L 249.00,406.00 L 248.00,406.00 L 247.00,405.00 L 247.00,405.00 L 246.00,404.00 L 246.00,404.00 L 245.00,403.00 L 245.00,403.00 L 244.00,402.00 L 244.00,402.00 L 243.00,401.00 L 243.00,401.00 L 242.00,400.00 L 242.00,400.00 L 241.00,399.00 L 241.00,398.00 L 241.00,398.00 L 240.00,397.00 L 240.00,396.00 L 240.00,395.00 L 240.00,395.00 L 239.00,394.00 L 239.00,393.00 L 239.00,392.00 L 239.00,391.00 L 239.00,390.00 L 239.00,389.00 L 239.00,388.00 L 239.00,387.00 L 239.00,386.00 L 239.00,385.00 L 240.00,384.00 L 240.00,384.00 L 240.00,384.00 L 239.00,384.00 L 238.00,384.00 L 237.00,384.00 L 236.00,384.00 L 235.00,384.00 L 234.00,384.00 L 233.00,384.00 L 232.00,384.00 L 231.00,384.00 L 230.00,384.00 L 229.00,384.00 L 228.00,384.00 L 227.00,384.00 L 226.00,384.00 L 225.00,384.00 L 224.00,384.00 L 223.00,384.00 L 222.00,384.00 L 221.00,384.00 L 221.00,384.00 L 221.00,384.00 L 222.00,385.00 L 222.00,386.00 L 222.00,387.00 L 222.00,388.00 L 222.00,389.00 L 222.00,390.00 L 222.00,391.00 L 222.00,392.00 L 222.00,393.00 L 221.00,394.00 L 221.00,394.00 L 221.00,395.00 L 221.00,396.00 L 220.00,397.00 L 220.00,397.00 L 220.00,398.00 L 219.00,399.00 L 219.00,399.00 L 219.00,400.00 L 218.00,401.00 L 218.00,401.00 L 217.00,402.00 L 217.00,402.00 L 216.00,403.00 L 216.00,403.00 L 215.00,404.00 L 215.00,404.00 L 214.00,405.00 L 213.00,405.00 L 213.00,405.00 L 212.00,406.00 L 212.00,406.00 L 211.00,407.00 L 210.00,407.00 L 209.00,407.00 L 209.00,407.00 L 208.00,408.00 L 207.00,408.00 L 206.00,408.00 L 205.00,408.00 L 204.00,408.00 L 203.00,408.00 L 203.00,408.00 L 202.00,409.00 Z" fill="black" /><path d="M 97.00,373.00 L 96.00,373.00 L 95.00,373.00 L 94.00,373.00 L 93.00,373.00 L 92.00,373.00 L 91.00,373.00 L 90.00,372.00 L 90.00,372.00 L 89.00,372.00 L 88.00,372.00 L 87.00,371.00 L 87.00,371.00 L 86.00,370.00 L 86.00,370.00 L 85.00,369.00 L 85.00,369.00 L 84.00,368.00 L 84.00,368.00 L 83.00,367.00 L 83.00,366.00 L 83.00,365.00 L 83.00,365.00 L 82.00,364.00 L 82.00,363.00 L 82.00,362.00 L 82.00,361.00 L 82.00,360.00 L 82.00,359.00 L 82.00,358.00 L 83.00,357.00 L 83.00,357.00 L 83.00,356.00 L 84.00,355.00 L 84.00,355.00 L 85.00,354.00 L 85.00,354.00 L 86.00,353.00 L 86.00,353.00 L 87.00,352.00 L 87.00,352.00 L 88.00,351.00 L 89.00,351.00 L 89.00,351.00 L 90.00,350.00 L 91.00,350.00 L 92.00,350.00 L 93.00,350.00 L 94.00,350.00 L 95.00,350.00 L 96.00,350.00 L 97.00,350.00 L 98.00,351.00 L 98.00,351.00 L 99.00,351.00 L 100.00,352.00 L 100.00,352.00 L 101.00,353.00 L 101.00,353.00 L 102.00,354.00 L 102.00,354.00 L 103.00,355.00 L 103.00,355.00 L 104.00,356.00 L 104.00,357.00 L 104.00,357.00 L 105.00,358.00 L 105.00,359.00 L 105.00,360.00 L 105.00,361.00 L 105.00,362.00 L 105.00,363.00 L 105.00,364.00 L 105.00,365.00 L 104.00,366.00 L 104.00,366.00 L 104.00,367.00 L 103.00,368.00 L 103.00,368.00 L 102.00,369.00 L 102.00,369.00 L 101.00,370.00 L 101.00,370.00 L 100.00,371.00 L 100.00,371.00 L 99.00,372.00 L 98.00,372.00 L 98.00,372.00 L 97.00,373.00 Z" fill="black" /><path d="M 204.00,392.00 L 205.00,391.00 L 205.00,391.00 L 206.00,390.00 L 206.00,390.00 L 206.00,389.00 L 206.00,388.00 L 206.00,387.00 L 206.00,387.00 L 205.00,386.00 L 205.00,386.00 L 204.00,385.00 L 204.00,385.00 L 203.00,385.00 L 202.00,385.00 L 201.00,385.00 L 201.00,385.00 L 200.00,386.00 L 200.00,386.00 L 199.00,387.00 L 199.00,387.00 L 198.00,388.00 L 198.00,388.00 L 198.00,389.00 L 198.00,389.00 L 199.00,390.00 L 199.00,391.00 L 199.00,391.00 L 200.00,392.00 L 200.00,392.00 L 201.00,392.00 L 202.00,392.00 L 203.00,392.00 L 204.00,392.00 L 204.00,392.00 Z" fill="black" /><path d="M 259.00,392.00 L 260.00,391.00 L 260.00,391.00 L 261.00,390.00 L 261.00,390.00 L 261.00,389.00 L 261.00,388.00 L 261.00,388.00 L 260.00,387.00 L 260.00,387.00 L 259.00,386.00 L 259.00,386.00 L 258.00,386.00 L 257.00,386.00 L 256.00,386.00 L 256.00,386.00 L 255.00,387.00 L 255.00,387.00 L 255.00,388.00 L 254.00,389.00 L 254.00,389.00 L 254.00,389.00 L 255.00,390.00 L 255.00,391.00 L 255.00,391.00 L 256.00,392.00 L 256.00,392.00 L 257.00,392.00 L 258.00,392.00 L 259.00,392.00 L 259.00,392.00 Z" fill="black" /></svg>